Coordinates
version=1
nRows=11
nColumns=46
inDegrees=yes

Units are S.I. units (second, meters, Newtons, ...)
Angles are in degrees.

endheader
time	pelvis_tilt	pelvis_list	pelvis_rotation	pelvis_tx	pelvis_ty	pelvis_tz	bb_angle	bb_tx	bb_ty	bb_tz	hip_flexion_r	hip_adduction_r	hip_rotation_r	knee_angle_r	knee_angle_r_beta	ankle_angle_r	subtalar_angle_r	mtp_angle_r	crank_angle_r	hip_flexion_l	hip_adduction_l	hip_rotation_l	knee_angle_l	knee_angle_l_beta	ankle_angle_l	subtalar_angle_l	mtp_angle_l	crank_angle_l	lumbar_extension	lumbar_bending	lumbar_rotation	arm_flex_r	arm_add_r	arm_rot_r	elbow_flex_r	pro_sup_r	wrist_flex_r	wrist_dev_r	arm_flex_l	arm_add_l	arm_rot_l	elbow_flex_l	pro_sup_l	wrist_flex_l	wrist_dev_l
      5.00500000	    -30.41162799	      5.66784447	      7.99608435	      0.40825697	      1.09785195	     -0.31720642	      0.00000000	      0.50000000	      0.00000000	      0.25000000	     38.10158196	    -13.96308745	     -1.66059995	     36.03362774	      0.62890545	    -30.32165778	     -9.24102378	      0.00000000	      0.00000000	     84.45284633	      2.08744148	     -0.79416701	    100.63771511	      1.75645948	     14.21768667	     -1.61413957	      0.00000000	      0.00000000	    -63.03312670	     -1.15156416	     -7.08854351	     45.51585447	    -19.90555970	     11.95994438	     95.10537894	     48.15552529	      0.00000000	      0.00000000	     54.66953095	    -22.64978993	     27.54187698	    101.14528121	     49.02631704	      0.00000000	      0.00000000
      5.01000000	    -30.66930559	      5.64130521	      7.77840332	      0.40855318	      1.09949920	     -0.31712590	      0.00000000	      0.50000000	      0.00000000	      0.25000000	     38.66979156	    -13.72607063	     -1.23669016	     37.46406875	      0.65387135	    -29.88429622	     -9.98530368	      0.00000000	      0.00000000	     83.66115556	      1.84619746	     -1.06011349	     98.59509454	      1.72080903	     15.55068726	     -1.55852763	      0.00000000	      0.00000000	    -63.19228369	     -1.56580415	     -7.07227138	     45.60591205	    -20.00468677	     11.81301363	     95.04806299	     48.12919530	      0.00000000	      0.00000000	     54.82653895	    -22.62377125	     27.57558075	    101.58235198	     49.08800970	      0.00000000	      0.00000000
      5.01500000	    -30.85162250	      5.70577316	      7.45923610	      0.40899599	      1.10111808	     -0.31689007	      0.00000000	      0.50000000	      0.00000000	      0.25000000	     39.28790324	    -13.50430325	     -0.65658450	     39.07020879	      0.68190378	    -29.40885204	    -10.78838244	      0.00000000	      0.00000000	     82.65957857	      1.54384414	     -1.41509218	     96.44767816	      1.68332954	     16.86654978	     -1.34065119	      0.00000000	      0.00000000	    -63.49061321	     -2.11266038	     -7.09975465	     45.69363877	    -20.16550889	     11.63518965	     95.00371564	     48.10223141	      0.00000000	      0.00000000	     55.04536363	    -22.56288565	     27.59003650	    102.09052185	     49.15651891	      0.00000000	      0.00000000
      5.02000000	    -30.99644425	      5.74349623	      7.10560800	      0.40957625	      1.10266220	     -0.31665218	      0.00000000	      0.50000000	      0.00000000	      0.25000000	     39.91298795	    -13.22264751	      0.04348075	     40.68443132	      0.71007728	    -29.05799932	    -11.44756595	      0.00000000	      0.00000000	     81.54780148	      1.19582608	     -1.80863939	     94.16430271	      1.64347712	     17.93684250	     -1.26455561	      0.00000000	      0.00000000	    -63.82255922	     -2.65048370	     -7.06769621	     45.70977890	    -20.32543750	     11.46828817	     94.98022395	     48.08180359	      0.00000000	      0.00000000	     55.25967292	    -22.52822158	     27.58302634	    102.66920777	     49.23002555	      0.00000000	      0.00000000
      5.02500000	    -31.07953000	      5.77193758	      6.71965813	      0.41018144	      1.10401950	     -0.31653972	      0.00000000	      0.50000000	      0.00000000	      0.25000000	     40.58096020	    -12.93552049	      0.79898632	     42.43045388	      0.74055112	    -28.66240803	    -11.86454592	      0.00000000	      0.00000000	     80.33606827	      0.77364685	     -2.33946976	     91.79157016	      1.60206512	     18.78580197	     -1.45769758	      0.00000000	      0.00000000	    -64.18048782	     -3.16867339	     -7.04810362	     45.70635533	    -20.51645588	     11.28199401	     95.05617658	     48.07841588	      0.00000000	      0.00000000	     55.40186558	    -22.49544623	     27.54189300	    103.27539388	     49.29936258	      0.00000000	      0.00000000
      5.03000000	    -31.11248311	      5.68524861	      6.32140895	      0.41079300	      1.10516597	     -0.31643823	      0.00000000	      0.50000000	      0.00000000	      0.25000000	     41.24109693	    -12.51819948	      1.55210356	     44.23345799	      0.77201948	    -28.23070806	    -12.16622401	      0.00000000	      0.00000000	     79.15511126	      0.43168108	     -2.73204655	     89.42179276	      1.56070471	     19.14599740	     -2.27893196	      0.00000000	      0.00000000	    -64.50384569	     -3.57458413	     -6.92212586	     45.77057611	    -20.69733560	     11.13061163	     95.14435460	     48.07993058	      0.00000000	      0.00000000	     55.46923643	    -22.39895617	     27.47535094	    103.73114180	     49.34403854	      0.00000000	      0.00000000
      5.03500000	    -31.12987240	      5.49640809	      5.91781435	      0.41151077	      1.10608330	     -0.31638253	      0.00000000	      0.50000000	      0.00000000	      0.25000000	     41.93053110	    -12.01424370	      2.21933143	     46.12649325	      0.80505918	    -27.77149425	    -12.46360644	      0.00000000	      0.00000000	     78.04442589	      0.08129266	     -3.02380614	     87.17625721	      1.52151272	     19.20170767	     -3.14980211	      0.00000000	      0.00000000	    -64.78366517	     -3.91750517	     -6.66568835	     45.81132689	    -20.89811097	     11.00526311	     95.20559132	     48.07919475	      0.00000000	      0.00000000	     55.37275166	    -22.30468849	     27.40217692	    104.12178210	     49.38286741	      0.00000000	      0.00000000
      5.04000000	    -31.22015965	      5.47474883	      5.56538757	      0.41199116	      1.10670306	     -0.31653544	      0.00000000	      0.50000000	      0.00000000	      0.25000000	     42.80753179	    -11.70521583	      3.07270061	     48.15385313	      0.84044328	    -27.16756474	    -12.29953900	      0.00000000	      0.00000000	     77.03024610	     -0.10131954	     -3.44003519	     84.89328140	      1.48166727	     18.81762725	     -4.03903480	      0.00000000	      0.00000000	    -64.98596451	     -4.32516556	     -6.63145503	     45.67765046	    -21.11354899	     10.86111656	     95.46254230	     48.11703541	      0.00000000	      0.00000000	     55.24920469	    -22.17825918	     27.24155898	    104.75730439	     49.43064093	      0.00000000	      0.00000000
      5.04500000	    -31.19411185	      5.33040842	      5.22730611	      0.41254947	      1.10710546	     -0.31647227	      0.00000000	      0.50000000	      0.00000000	      0.25000000	     43.58691951	    -11.22429487	      3.84181364	     50.26916657	      0.87736247	    -26.54989816	    -12.38444289	      0.00000000	      0.00000000	     76.03216882	     -0.38827597	     -3.74865648	     82.76319143	      1.44449019	     18.38335712	     -4.58189043	      0.00000000	      0.00000000	    -65.21124653	     -4.61726376	     -6.45892479	     45.63917695	    -21.28821911	     10.76632416	     95.60300900	     48.13688455	      0.00000000	      0.00000000	     55.10912285	    -22.02683116	     27.09878720	    105.20206801	     49.45560454	      0.00000000	      0.00000000
      5.05000000	    -31.11865527	      5.17550187	      4.93831654	      0.41307401	      1.10731756	     -0.31664947	      0.00000000	      0.50000000	      0.00000000	      0.25000000	     44.36834711	    -10.79452172	      4.53364280	     52.48412086	      0.91602071	    -25.83761529	    -12.34726735	      0.00000000	      0.00000000	     75.05569759	     -0.54307141	     -3.89273766	     80.70421360	      1.40855425	     17.68002835	     -5.28490015	      0.00000000	      0.00000000	    -65.39283519	     -4.83054288	     -6.31785509	     45.63578934	    -21.46108026	     10.70782630	     95.71597061	     48.15488588	      0.00000000	      0.00000000	     54.95723375	    -21.86328817	     26.91058185	    105.60048524	     49.46929725	      0.00000000	      0.00000000
      5.05500000	    -30.92390586	      4.69909464	      4.71498874	      0.41354459	      1.10741990	     -0.31685209	      0.00000000	      0.50000000	      0.00000000	      0.25000000	     44.96030492	    -10.05481471	      5.00462347	     54.59001176	      0.95277544	    -25.59443604	    -12.43443637	      0.00000000	      0.00000000	     74.12925004	     -0.82943649	     -3.64581508	     78.80868907	      1.37547110	     16.81961408	     -5.08633862	      0.00000000	      0.00000000	    -65.65077410	     -4.71936669	     -5.85326148	     45.69778510	    -21.48090064	     10.71535828	     95.68985755	     48.15102554	      0.00000000	      0.00000000	     54.76805874	    -21.83571831	     26.84984367	    105.73323014	     49.47982185	      0.00000000	      0.00000000
